# xmcd
#
# Track frame offsets:
#	150
#	21648
#	36812
#	52770
#	72445
#	94808
#	112350
#	124057
#	145378
#	161063
#	181140
#	202554
#	214386
#	229296
#	245998
#
# Disc length: 3535 seconds
#
# Revision: 4
# Processed by: cddbd v1.5.2PL0 Copyright (c) Steve Scherf et al.
# Submitted via: EasyCDDAExtractor 15.3.0.1
#
DISCID=e50dcd0f
DTITLE=Alvaro Torres - 30 Exitos Insuperables - CD 1
DYEAR=2003
DGENRE=Latin
TTITLE0=Nada Se Compara Contigo
TTITLE1=Amame
TTITLE2=De Punta A Punta
TTITLE3=He Vivido Esperando Por Ti
TTITLE4=Ni Tu, Ni Ella
TTITLE5=Hazme Olvidarla
TTITLE6=Tu Enamorado
TTITLE7=Un Dia De Estos
TTITLE8=Si Estuvieras Conmigo
TTITLE9=Te Olvidare
TTITLE10=Buenos Amigos (A Duo Con Selena)
TTITLE11=Entrega Total
TTITLE12=Si Dios Me Quita La Vida
TTITLE13=Mi Verdadero Amor
TTITLE14=El Pastor
EXTD=
EXTT0=
EXTT1=
EXTT2=
EXTT3=
EXTT4=
EXTT5=
EXTT6=
EXTT7=
EXTT8=
EXTT9=
EXTT10=
EXTT11=
EXTT12=
EXTT13=
EXTT14=
PLAYORDER=
